<mxfile host="app.diagrams.net" modified="2022-01-10T14:28:30.719Z" agent="5.0 (Macintosh; Intel Mac OS X 10_15_7) AppleWebKit/605.1.15 (KHTML, like Gecko) Version/15.2 Safari/605.1.15" etag="WLtj89SBQCFiuW36qprq" version="16.2.2" type="github">
  <diagram id="9NOF9pIbijMmcDffAA9m" name="Page-1">
    <mxGraphModel dx="2201" dy="921" grid="1" gridSize="10" guides="1" tooltips="1" connect="1" arrows="1" fold="1" page="1" pageScale="1" pageWidth="850" pageHeight="1100" math="1" shadow="0">
      <root>
        <mxCell id="0" />
        <mxCell id="1" parent="0" />
        <mxCell id="eNLN1X___4Cwnm_M1iol-100" value="" style="rounded=0;whiteSpace=wrap;html=1;fontSize=10;dashed=1;fillColor=none;strokeColor=#000000;opacity=50;" parent="1" vertex="1">
          <mxGeometry x="435" y="610" width="250" height="200" as="geometry" />
        </mxCell>
        <mxCell id="eNLN1X___4Cwnm_M1iol-56" value="&lt;font style=&quot;font-size: 10px&quot;&gt;$$p(r_1^{(1)})=0.6$$&lt;/font&gt;" style="ellipse;whiteSpace=wrap;html=1;fillColor=#f8cecc;strokeColor=#b85450;" parent="1" vertex="1">
          <mxGeometry x="-140" y="590" width="80" height="40" as="geometry" />
        </mxCell>
        <mxCell id="eNLN1X___4Cwnm_M1iol-57" value="&lt;font style=&quot;font-size: 10px&quot;&gt;$$p(r_1^{(2)})=0.3$$&lt;/font&gt;" style="ellipse;whiteSpace=wrap;html=1;" parent="1" vertex="1">
          <mxGeometry x="-140" y="660" width="80" height="40" as="geometry" />
        </mxCell>
        <mxCell id="eNLN1X___4Cwnm_M1iol-58" value="&lt;font style=&quot;font-size: 10px&quot;&gt;$$p(r_1^{(3)})=0.1$$&lt;/font&gt;" style="ellipse;whiteSpace=wrap;html=1;" parent="1" vertex="1">
          <mxGeometry x="-140" y="730" width="80" height="40" as="geometry" />
        </mxCell>
        <mxCell id="eNLN1X___4Cwnm_M1iol-59" value="&lt;font style=&quot;font-size: 10px&quot;&gt;$$p(r_2^{(1)})=0.5$$&lt;/font&gt;" style="ellipse;whiteSpace=wrap;html=1;fillColor=#f8cecc;strokeColor=#b85450;" parent="1" vertex="1">
          <mxGeometry x="-10" y="590" width="80" height="40" as="geometry" />
        </mxCell>
        <mxCell id="eNLN1X___4Cwnm_M1iol-60" value="&lt;font style=&quot;font-size: 10px&quot;&gt;$$p(r_2^{(2)})=0.4$$&lt;/font&gt;" style="ellipse;whiteSpace=wrap;html=1;" parent="1" vertex="1">
          <mxGeometry x="-10" y="660" width="80" height="40" as="geometry" />
        </mxCell>
        <mxCell id="eNLN1X___4Cwnm_M1iol-61" value="&lt;font style=&quot;font-size: 10px&quot;&gt;$$p(r_1^{(3)})=0.1$$&lt;/font&gt;" style="ellipse;whiteSpace=wrap;html=1;" parent="1" vertex="1">
          <mxGeometry x="-10" y="730" width="80" height="40" as="geometry" />
        </mxCell>
        <mxCell id="eNLN1X___4Cwnm_M1iol-62" value="&lt;font style=&quot;font-size: 10px&quot;&gt;$$p(r_1^{(1)})=0.6$$&lt;/font&gt;" style="ellipse;whiteSpace=wrap;html=1;fillColor=#f8cecc;strokeColor=#b85450;" parent="1" vertex="1">
          <mxGeometry x="175" y="590" width="80" height="40" as="geometry" />
        </mxCell>
        <mxCell id="eNLN1X___4Cwnm_M1iol-63" value="&lt;font style=&quot;font-size: 10px&quot;&gt;$$p(r_1^{(2)})=0.3$$&lt;/font&gt;" style="ellipse;whiteSpace=wrap;html=1;" parent="1" vertex="1">
          <mxGeometry x="175" y="660" width="80" height="40" as="geometry" />
        </mxCell>
        <mxCell id="eNLN1X___4Cwnm_M1iol-64" value="&lt;font style=&quot;font-size: 10px&quot;&gt;$$p(r_1^{(3)})=0.1$$&lt;/font&gt;" style="ellipse;whiteSpace=wrap;html=1;" parent="1" vertex="1">
          <mxGeometry x="175" y="730" width="80" height="40" as="geometry" />
        </mxCell>
        <mxCell id="eNLN1X___4Cwnm_M1iol-65" value="&lt;font style=&quot;font-size: 10px&quot;&gt;$$p(r_2^{(1)})=0.5$$&lt;/font&gt;" style="ellipse;whiteSpace=wrap;html=1;" parent="1" vertex="1">
          <mxGeometry x="305" y="590" width="80" height="40" as="geometry" />
        </mxCell>
        <mxCell id="eNLN1X___4Cwnm_M1iol-66" value="&lt;font style=&quot;font-size: 10px&quot;&gt;$$p(r_2^{(2)})=0.4$$&lt;/font&gt;" style="ellipse;whiteSpace=wrap;html=1;fillColor=#f8cecc;strokeColor=#b85450;" parent="1" vertex="1">
          <mxGeometry x="305" y="660" width="80" height="40" as="geometry" />
        </mxCell>
        <mxCell id="eNLN1X___4Cwnm_M1iol-67" value="&lt;font style=&quot;font-size: 10px&quot;&gt;$$p(r_1^{(3)})=0.1$$&lt;/font&gt;" style="ellipse;whiteSpace=wrap;html=1;" parent="1" vertex="1">
          <mxGeometry x="305" y="730" width="80" height="40" as="geometry" />
        </mxCell>
        <mxCell id="eNLN1X___4Cwnm_M1iol-68" value="" style="endArrow=none;html=1;rounded=0;dashed=1;fontSize=10;strokeColor=default;opacity=50;exitX=0;exitY=0.5;exitDx=0;exitDy=0;entryX=1;entryY=0.5;entryDx=0;entryDy=0;startArrow=openThin;startFill=0;" parent="1" source="eNLN1X___4Cwnm_M1iol-65" target="eNLN1X___4Cwnm_M1iol-62" edge="1">
          <mxGeometry width="50" height="50" relative="1" as="geometry">
            <mxPoint x="305" y="610" as="sourcePoint" />
            <mxPoint x="425" y="660" as="targetPoint" />
          </mxGeometry>
        </mxCell>
        <mxCell id="eNLN1X___4Cwnm_M1iol-69" value="" style="endArrow=none;html=1;rounded=0;dashed=1;fontSize=10;strokeColor=default;opacity=50;exitX=0;exitY=0.5;exitDx=0;exitDy=0;entryX=1;entryY=0.5;entryDx=0;entryDy=0;startArrow=openThin;startFill=0;" parent="1" source="eNLN1X___4Cwnm_M1iol-66" target="eNLN1X___4Cwnm_M1iol-62" edge="1">
          <mxGeometry width="50" height="50" relative="1" as="geometry">
            <mxPoint x="475" y="610" as="sourcePoint" />
            <mxPoint x="425" y="660" as="targetPoint" />
          </mxGeometry>
        </mxCell>
        <mxCell id="eNLN1X___4Cwnm_M1iol-70" value="" style="endArrow=none;html=1;rounded=0;dashed=1;fontSize=10;strokeColor=default;opacity=50;exitX=0;exitY=0.5;exitDx=0;exitDy=0;entryX=1;entryY=0.5;entryDx=0;entryDy=0;startArrow=openThin;startFill=0;" parent="1" source="eNLN1X___4Cwnm_M1iol-67" target="eNLN1X___4Cwnm_M1iol-62" edge="1">
          <mxGeometry width="50" height="50" relative="1" as="geometry">
            <mxPoint x="475" y="610" as="sourcePoint" />
            <mxPoint x="425" y="660" as="targetPoint" />
          </mxGeometry>
        </mxCell>
        <mxCell id="eNLN1X___4Cwnm_M1iol-72" value="" style="endArrow=none;html=1;rounded=0;dashed=1;fontSize=10;strokeColor=default;opacity=50;exitX=0;exitY=0.5;exitDx=0;exitDy=0;entryX=1;entryY=0.5;entryDx=0;entryDy=0;startArrow=openThin;startFill=0;" parent="1" source="eNLN1X___4Cwnm_M1iol-65" target="eNLN1X___4Cwnm_M1iol-63" edge="1">
          <mxGeometry width="50" height="50" relative="1" as="geometry">
            <mxPoint x="475" y="610" as="sourcePoint" />
            <mxPoint x="425" y="660" as="targetPoint" />
          </mxGeometry>
        </mxCell>
        <mxCell id="eNLN1X___4Cwnm_M1iol-73" value="" style="endArrow=none;html=1;rounded=0;dashed=1;fontSize=10;strokeColor=default;opacity=50;exitX=0;exitY=0.5;exitDx=0;exitDy=0;entryX=1;entryY=0.5;entryDx=0;entryDy=0;startArrow=openThin;startFill=0;" parent="1" source="eNLN1X___4Cwnm_M1iol-66" target="eNLN1X___4Cwnm_M1iol-63" edge="1">
          <mxGeometry width="50" height="50" relative="1" as="geometry">
            <mxPoint x="475" y="610" as="sourcePoint" />
            <mxPoint x="425" y="660" as="targetPoint" />
          </mxGeometry>
        </mxCell>
        <mxCell id="eNLN1X___4Cwnm_M1iol-74" value="" style="endArrow=none;html=1;rounded=0;dashed=1;fontSize=10;strokeColor=default;opacity=50;exitX=0;exitY=0.5;exitDx=0;exitDy=0;entryX=1;entryY=0.5;entryDx=0;entryDy=0;startArrow=openThin;startFill=0;" parent="1" source="eNLN1X___4Cwnm_M1iol-67" target="eNLN1X___4Cwnm_M1iol-63" edge="1">
          <mxGeometry width="50" height="50" relative="1" as="geometry">
            <mxPoint x="475" y="610" as="sourcePoint" />
            <mxPoint x="425" y="660" as="targetPoint" />
          </mxGeometry>
        </mxCell>
        <mxCell id="eNLN1X___4Cwnm_M1iol-75" value="" style="endArrow=none;html=1;rounded=0;dashed=1;fontSize=10;strokeColor=default;opacity=50;exitX=0;exitY=0.5;exitDx=0;exitDy=0;entryX=1;entryY=0.5;entryDx=0;entryDy=0;startArrow=openThin;startFill=0;" parent="1" source="eNLN1X___4Cwnm_M1iol-65" target="eNLN1X___4Cwnm_M1iol-64" edge="1">
          <mxGeometry width="50" height="50" relative="1" as="geometry">
            <mxPoint x="475" y="710" as="sourcePoint" />
            <mxPoint x="425" y="760" as="targetPoint" />
          </mxGeometry>
        </mxCell>
        <mxCell id="eNLN1X___4Cwnm_M1iol-76" value="" style="endArrow=none;html=1;rounded=0;dashed=1;fontSize=10;strokeColor=default;opacity=50;exitX=0;exitY=0.5;exitDx=0;exitDy=0;entryX=1;entryY=0.5;entryDx=0;entryDy=0;startArrow=openThin;startFill=0;" parent="1" source="eNLN1X___4Cwnm_M1iol-66" target="eNLN1X___4Cwnm_M1iol-64" edge="1">
          <mxGeometry width="50" height="50" relative="1" as="geometry">
            <mxPoint x="475" y="710" as="sourcePoint" />
            <mxPoint x="425" y="760" as="targetPoint" />
          </mxGeometry>
        </mxCell>
        <mxCell id="eNLN1X___4Cwnm_M1iol-77" value="" style="endArrow=none;html=1;rounded=0;dashed=1;fontSize=10;strokeColor=default;opacity=50;exitX=0;exitY=0.5;exitDx=0;exitDy=0;entryX=1;entryY=0.5;entryDx=0;entryDy=0;startArrow=openThin;startFill=0;" parent="1" source="eNLN1X___4Cwnm_M1iol-67" target="eNLN1X___4Cwnm_M1iol-64" edge="1">
          <mxGeometry width="50" height="50" relative="1" as="geometry">
            <mxPoint x="475" y="710" as="sourcePoint" />
            <mxPoint x="425" y="760" as="targetPoint" />
          </mxGeometry>
        </mxCell>
        <mxCell id="eNLN1X___4Cwnm_M1iol-79" value="$$\max p(r_1)=p(r_1^{(1)})$$" style="text;html=1;align=center;verticalAlign=middle;resizable=0;points=[];autosize=1;strokeColor=none;fillColor=none;fontSize=10;" parent="1" vertex="1">
          <mxGeometry x="-170" y="789" width="140" height="20" as="geometry" />
        </mxCell>
        <mxCell id="eNLN1X___4Cwnm_M1iol-82" value="" style="endArrow=none;html=1;rounded=0;fontSize=10;strokeColor=#000000;startArrow=async;startFill=1;" parent="1" edge="1">
          <mxGeometry width="50" height="50" relative="1" as="geometry">
            <mxPoint x="40" y="831" as="sourcePoint" />
            <mxPoint x="-130" y="831" as="targetPoint" />
          </mxGeometry>
        </mxCell>
        <mxCell id="eNLN1X___4Cwnm_M1iol-83" value="$$t=1$$" style="text;html=1;align=center;verticalAlign=middle;resizable=0;points=[];autosize=1;strokeColor=none;fillColor=none;fontSize=10;" parent="1" vertex="1">
          <mxGeometry x="-125" y="841" width="50" height="20" as="geometry" />
        </mxCell>
        <mxCell id="eNLN1X___4Cwnm_M1iol-84" value="$$\max p(r_2)=p(r_2^{(1)})$$" style="text;html=1;align=center;verticalAlign=middle;resizable=0;points=[];autosize=1;strokeColor=none;fillColor=none;fontSize=10;" parent="1" vertex="1">
          <mxGeometry x="-40" y="789" width="140" height="20" as="geometry" />
        </mxCell>
        <mxCell id="eNLN1X___4Cwnm_M1iol-85" value="$$t=2$$" style="text;html=1;align=center;verticalAlign=middle;resizable=0;points=[];autosize=1;strokeColor=none;fillColor=none;fontSize=10;" parent="1" vertex="1">
          <mxGeometry x="5" y="841" width="50" height="20" as="geometry" />
        </mxCell>
        <mxCell id="eNLN1X___4Cwnm_M1iol-89" value="" style="endArrow=none;html=1;rounded=0;fontSize=10;strokeColor=#000000;startArrow=async;startFill=1;" parent="1" edge="1">
          <mxGeometry width="50" height="50" relative="1" as="geometry">
            <mxPoint x="355" y="831" as="sourcePoint" />
            <mxPoint x="185" y="831" as="targetPoint" />
          </mxGeometry>
        </mxCell>
        <mxCell id="eNLN1X___4Cwnm_M1iol-90" value="$$t=1$$" style="text;html=1;align=center;verticalAlign=middle;resizable=0;points=[];autosize=1;strokeColor=none;fillColor=none;fontSize=10;" parent="1" vertex="1">
          <mxGeometry x="190" y="841" width="50" height="20" as="geometry" />
        </mxCell>
        <mxCell id="eNLN1X___4Cwnm_M1iol-91" value="$$t=2$$" style="text;html=1;align=center;verticalAlign=middle;resizable=0;points=[];autosize=1;strokeColor=none;fillColor=none;fontSize=10;" parent="1" vertex="1">
          <mxGeometry x="320" y="841" width="50" height="20" as="geometry" />
        </mxCell>
        <mxCell id="eNLN1X___4Cwnm_M1iol-92" value="$$\max p(r_2|r_1)=p(r_2^{(2)}|r_1^{(1)})$$" style="text;html=1;align=center;verticalAlign=middle;resizable=0;points=[];autosize=1;strokeColor=none;fillColor=none;fontSize=10;" parent="1" vertex="1">
          <mxGeometry x="170" y="789" width="200" height="20" as="geometry" />
        </mxCell>
        <mxCell id="eNLN1X___4Cwnm_M1iol-93" value="$$p(r_2^{(1)}|r_1^{(1)})=0.2$$" style="text;html=1;align=center;verticalAlign=middle;resizable=0;points=[];autosize=1;strokeColor=none;fillColor=none;fontSize=10;" parent="1" vertex="1">
          <mxGeometry x="415" y="630" width="150" height="20" as="geometry" />
        </mxCell>
        <mxCell id="eNLN1X___4Cwnm_M1iol-94" value="$$p(r_2^{(1)}|r_1^{(2)})=0.2$$" style="text;html=1;align=center;verticalAlign=middle;resizable=0;points=[];autosize=1;strokeColor=none;fillColor=none;fontSize=10;" parent="1" vertex="1">
          <mxGeometry x="415" y="705" width="150" height="20" as="geometry" />
        </mxCell>
        <mxCell id="eNLN1X___4Cwnm_M1iol-95" value="$$p(r_2^{(1)}|r_1^{(3)})=0.1$$" style="text;html=1;align=center;verticalAlign=middle;resizable=0;points=[];autosize=1;strokeColor=none;fillColor=none;fontSize=10;" parent="1" vertex="1">
          <mxGeometry x="415" y="769" width="150" height="20" as="geometry" />
        </mxCell>
        <mxCell id="eNLN1X___4Cwnm_M1iol-96" value="$$p(r_2^{(2)}|r_1^{(1)})=0.3$$" style="text;html=1;align=center;verticalAlign=middle;resizable=0;points=[];autosize=1;strokeColor=none;fillColor=none;fontSize=10;" parent="1" vertex="1">
          <mxGeometry x="545" y="630" width="150" height="20" as="geometry" />
        </mxCell>
        <mxCell id="eNLN1X___4Cwnm_M1iol-97" value="$$p(r_2^{(2)}|r_1^{(2)})=0.1$$" style="text;html=1;align=center;verticalAlign=middle;resizable=0;points=[];autosize=1;strokeColor=none;fillColor=none;fontSize=10;" parent="1" vertex="1">
          <mxGeometry x="545" y="705" width="150" height="20" as="geometry" />
        </mxCell>
        <mxCell id="eNLN1X___4Cwnm_M1iol-98" value="$$p(r_2^{(2)}|r_1^{(3)})=0.0$$" style="text;html=1;align=center;verticalAlign=middle;resizable=0;points=[];autosize=1;strokeColor=none;fillColor=none;fontSize=10;" parent="1" vertex="1">
          <mxGeometry x="545" y="769" width="150" height="20" as="geometry" />
        </mxCell>
        <mxCell id="eNLN1X___4Cwnm_M1iol-101" value="" style="shape=flexArrow;endArrow=classic;html=1;rounded=0;fontSize=10;width=6.285714285714286;endSize=5.085714285714286;endWidth=10;opacity=50;" parent="1" edge="1">
          <mxGeometry width="50" height="50" relative="1" as="geometry">
            <mxPoint x="365" y="799" as="sourcePoint" />
            <mxPoint x="405" y="798.71" as="targetPoint" />
          </mxGeometry>
        </mxCell>
        <mxCell id="eNLN1X___4Cwnm_M1iol-102" value="&lt;font style=&quot;font-size: 16px&quot;&gt;(a)&lt;/font&gt;" style="text;html=1;align=center;verticalAlign=middle;resizable=0;points=[];autosize=1;strokeColor=none;fillColor=none;fontSize=10;" parent="1" vertex="1">
          <mxGeometry x="-60" y="870" width="40" height="20" as="geometry" />
        </mxCell>
        <mxCell id="eNLN1X___4Cwnm_M1iol-103" value="&lt;font style=&quot;font-size: 16px&quot;&gt;(b)&lt;/font&gt;" style="text;html=1;align=center;verticalAlign=middle;resizable=0;points=[];autosize=1;strokeColor=none;fillColor=none;fontSize=10;" parent="1" vertex="1">
          <mxGeometry x="395" y="870" width="40" height="20" as="geometry" />
        </mxCell>
      </root>
    </mxGraphModel>
  </diagram>
</mxfile>
